<svg xmlns="http://www.w3.org/2000/svg" width="42" height="42" viewBox="0 0 42 42">
  <g id="Group_1986" data-name="Group 1986" transform="translate(-3291.79 -5191.79)">
    <g id="Group_1695" data-name="Group 1695" transform="translate(3301.689 5197.063)">
      <g id="cart" transform="translate(0 11.279)">
        <path id="Path_245" data-name="Path 245" d="M18.172,16.346h-8.02a2.347,2.347,0,0,1-2.3-1.886l-1.581-7.9H3.782A.782.782,0,1,1,3.782,5h3.13a.782.782,0,0,1,.782.626l1.69,8.529a.782.782,0,0,0,.782.626h8a.782.782,0,0,0,.782-.618l1.26-5.869a.782.782,0,0,0-.782-.947H11.607a.782.782,0,0,1,0-1.565h7.825a2.347,2.347,0,0,1,2.347,2.848L20.5,14.5a2.347,2.347,0,0,1-2.332,1.847Z" transform="translate(-3 -5)" fill="#c00d0d"/>
        <path id="Path_246" data-name="Path 246" d="M12.347,25.695a2.347,2.347,0,1,1,2.347-2.347A2.347,2.347,0,0,1,12.347,25.695Zm0-3.13a.782.782,0,1,0,.782.782A.782.782,0,0,0,12.347,22.565Z" transform="translate(-4.523 -8.48)" fill="#c00d0d"/>
        <path id="Path_247" data-name="Path 247" d="M21.347,25.695a2.347,2.347,0,1,1,2.347-2.347A2.347,2.347,0,0,1,21.347,25.695Zm0-3.13a.782.782,0,1,0,.782.782A.782.782,0,0,0,21.347,22.565Z" transform="translate(-6.481 -8.48)" fill="#c00d0d"/>
      </g>
      <g id="Group_1693" data-name="Group 1693" transform="translate(13.796 0)">
        <g id="Path_470" data-name="Path 470" fill="none">
          <path d="M5.076,0A5.076,5.076,0,1,1,0,5.076,5.076,5.076,0,0,1,5.076,0Z" stroke="none"/>
          <path d="M 5.075882911682129 1.000002861022949 C 2.828433036804199 1.000002861022949 1.000002861022949 2.828433036804199 1.000002861022949 5.075882911682129 C 1.000002861022949 7.323332786560059 2.828433036804199 9.151762962341309 5.075882911682129 9.151762962341309 C 7.323332786560059 9.151762962341309 9.151762962341309 7.323332786560059 9.151762962341309 5.075882911682129 C 9.151762962341309 2.828433036804199 7.323332786560059 1.000002861022949 5.075882911682129 1.000002861022949 M 5.075882911682129 2.86102294921875e-06 C 7.879212856292725 2.86102294921875e-06 10.15176296234131 2.272552967071533 10.15176296234131 5.075882911682129 C 10.15176296234131 7.879212856292725 7.879212856292725 10.15176296234131 5.075882911682129 10.15176296234131 C 2.272552967071533 10.15176296234131 2.86102294921875e-06 7.879212856292725 2.86102294921875e-06 5.075882911682129 C 2.86102294921875e-06 2.272552967071533 2.272552967071533 2.86102294921875e-06 5.075882911682129 2.86102294921875e-06 Z" stroke="none" fill="#c00d0d"/>
        </g>
        <g id="Group_1692" data-name="Group 1692" transform="translate(2.301 2.3)">
          <line id="Line_33" data-name="Line 33" y2="5.551" transform="translate(2.775)" fill="none" stroke="#c00d0d" stroke-linecap="round" stroke-width="1"/>
          <line id="Line_34" data-name="Line 34" x2="5.551" transform="translate(0 2.775)" fill="none" stroke="#c00d0d" stroke-linecap="round" stroke-width="1"/>
        </g>
      </g>
    </g>
    <g id="Ellipse_59" data-name="Ellipse 59" transform="translate(3291.79 5191.79)" fill="none" stroke="#c00d0d" stroke-width="1">
      <circle cx="21" cy="21" r="21" stroke="none"/>
      <circle cx="21" cy="21" r="20.5" fill="none"/>
    </g>
  </g>
</svg>
