<svg xmlns="http://www.w3.org/2000/svg" width="51.425" height="51.425" viewBox="0 0 51.425 51.425">
  <g id="add" opacity="0.26">
    <path id="Path_495" data-name="Path 495" d="M19.327,45H5.357A5.363,5.363,0,0,1,0,39.64V5.357A5.363,5.363,0,0,1,5.357,0H31.069a5.363,5.363,0,0,1,5.357,5.357V18.342a1.071,1.071,0,0,1-2.143,0V5.357a3.218,3.218,0,0,0-3.214-3.214H5.357A3.218,3.218,0,0,0,2.143,5.357V39.64a3.218,3.218,0,0,0,3.214,3.214h13.97a1.071,1.071,0,0,1,0,2.143Z" transform="translate(0)" fill="#3c3c3b"/>
    <path id="Path_496" data-name="Path 496" d="M25.5,10.143H4.071A1.071,1.071,0,0,1,4.071,8H25.5a1.071,1.071,0,0,1,0,2.143Z" transform="translate(3.428 9.142)" fill="#3c3c3b"/>
    <path id="Path_497" data-name="Path 497" d="M16.928,14.143H4.071a1.071,1.071,0,1,1,0-2.143H16.928a1.071,1.071,0,0,1,0,2.143Z" transform="translate(3.428 13.713)" fill="#3c3c3b"/>
    <path id="Path_498" data-name="Path 498" d="M14.785,6.143H4.071A1.071,1.071,0,0,1,4.071,4H14.785a1.071,1.071,0,1,1,0,2.143Z" transform="translate(3.428 4.571)" fill="#3c3c3b"/>
    <path id="Path_499" data-name="Path 499" d="M24.928,38.855A13.928,13.928,0,1,1,38.855,24.928,13.944,13.944,0,0,1,24.928,38.855Zm0-25.713A11.785,11.785,0,1,0,36.713,24.928,11.8,11.8,0,0,0,24.928,13.143Z" transform="translate(12.57 12.57)" fill="#3c3c3b"/>
    <path id="Path_500" data-name="Path 500" d="M18.071,29A1.072,1.072,0,0,1,17,27.928V15.071a1.071,1.071,0,1,1,2.143,0V27.928A1.072,1.072,0,0,1,18.071,29Z" transform="translate(19.426 15.998)" fill="#3c3c3b"/>
    <path id="Path_501" data-name="Path 501" d="M27.928,19.143H15.071a1.071,1.071,0,1,1,0-2.143H27.928a1.071,1.071,0,1,1,0,2.143Z" transform="translate(15.998 19.426)" fill="#3c3c3b"/>
  </g>
</svg>
