<svg xmlns="http://www.w3.org/2000/svg" width="68.235" height="68.353" viewBox="0 0 68.235 68.353">
  <g id="qr-code" transform="translate(0 0)">
    <path id="Path_667" data-name="Path 667" d="M55.072,9.582h7.582v7.582H55.072ZM28.536,2h3.791V5.791H28.536Zm3.791,3.791h7.582V9.582H32.327Zm7.582,3.791H43.7v3.791H39.909Zm0-7.582H43.7V5.791H39.909ZM36.118,13.373h3.791v3.791H36.118Zm-3.791,3.791h3.791v3.791H32.327Zm7.582,0H43.7v3.791H39.909Zm0,7.582H43.7v3.791H39.909ZM36.118,51.281h3.791v3.791H36.118Zm-3.791,3.791h3.791v3.791H32.327Zm-3.791,3.791h3.791v3.791H28.536Zm7.582,0h3.791v3.791H36.118Zm0,7.582h3.791v3.791H36.118Zm0-37.909h3.791V51.281H36.118Zm-11.373,0h3.791v3.791H24.745Zm-7.582,0h3.791v3.791H17.163Zm-7.582,0h3.791v3.791H9.582ZM5.791,36.118H9.582v3.791H5.791Zm7.582,0h3.791v3.791H13.373Zm7.582,0h3.791v3.791H20.954Zm3.791,3.791h3.791V43.7H24.745ZM28.536,43.7h3.791V47.49H28.536Zm3.791,3.791h3.791v3.791H32.327Zm-3.791,3.791h3.791v3.791H28.536Zm30.327,3.791h3.791v3.791H58.863Zm-3.791,3.791h3.791v3.791H55.072Zm7.582,0h3.791v3.791H62.654Zm0,7.582h3.791v3.791H62.654ZM51.281,55.072h3.791v3.791H51.281Zm7.582,7.582h3.791v3.791H58.863Zm-18.954,0H55.072v3.791H39.909ZM47.49,51.281H70.235v3.791H47.49ZM9.582,39.909h3.791V43.7H9.582ZM2,32.327H24.745v3.791H2Zm64.444-3.791h3.791v3.791H66.444Zm-7.582,0h3.791v3.791H58.863Zm-7.582,0h3.791v3.791H51.281ZM47.49,36.118h3.791v3.791H47.49Zm7.582,0h3.791v3.791H55.072Zm7.582,0h3.791v3.791H62.654Zm3.791,3.791h3.791V43.7H66.444Zm-15.163,0h3.791V43.7H51.281ZM39.909,43.7H43.7V47.49H39.909Zm7.582,0h3.791V47.49H47.49Zm7.582,0h3.791V47.49H55.072Zm3.791,3.791h3.791v3.791H58.863Zm-15.163,0H47.49v3.791H43.7Z" transform="translate(-2 -1.882)" fill="#535556"/>
    <path id="Path_668" data-name="Path 668" d="M28.745,32.327H62.863v3.791H28.745ZM24.954,9.582h3.791V39.909H24.954ZM62.863,5.791V20.954H47.7V5.791H62.863M66.654,2H43.909V24.745H66.654V2ZM6,9.582h7.582v7.582H6Z" transform="translate(1.581 -2)" fill="#535556"/>
    <path id="Path_669" data-name="Path 669" d="M20.954,5.791V20.954H5.791V5.791H20.954M24.745,2H2V24.745H24.745V2ZM9.582,55.072h7.582v7.582H9.582Z" transform="translate(-2 -2)" fill="#535556"/>
    <path id="Path_670" data-name="Path 670" d="M20.954,29.791V44.954H5.791V29.791H20.954M24.745,26H2V48.745H24.745V26Z" transform="translate(-2 19.49)" fill="#535556"/>
  </g>
</svg>
