<svg xmlns="http://www.w3.org/2000/svg" width="27.057" height="31.347" viewBox="0 0 27.057 31.347">
  <g id="book_1_" data-name="book (1)" transform="translate(-199.875 -578.875)">
    <g id="Icon" transform="translate(200 579)">
      <path id="Path_1566" data-name="Path 1566" d="M224.2,579H201.681A2.681,2.681,0,0,0,199,581.681v25.735a2.681,2.681,0,0,0,2.681,2.681h21.446a2.681,2.681,0,0,0,2.681-2.681V580.608A1.608,1.608,0,0,0,224.2,579Zm.536,26.271a2.668,2.668,0,0,1-1.608.536H201.681a1.608,1.608,0,1,0,0,3.217h21.446a1.608,1.608,0,0,0,1.608-1.608,2.681,2.681,0,0,1-1.608.536H201.681a.536.536,0,1,1,0-1.072h21.446a1.609,1.609,0,0,0,1.608-1.608Zm-16.084-25.2v7.3a1.287,1.287,0,0,1-2.2.91l-.484-.484-.484.484a1.287,1.287,0,0,1-2.2-.91v-7.3h-1.608a1.608,1.608,0,0,0-1.608,1.608v23.591a2.668,2.668,0,0,1,1.608-.536h21.446a1.608,1.608,0,0,0,1.608-1.608V580.608a.536.536,0,0,0-.536-.536Zm-1.072,0v7.3a.214.214,0,0,1-.366.152l-.863-.863a.536.536,0,0,0-.758,0l-.863.863a.214.214,0,0,1-.366-.152v-7.3h3.217Z" transform="translate(-199 -579)" fill="#ededed" stroke="#ededed" stroke-width="0.25" fill-rule="evenodd"/>
    </g>
  </g>
</svg>
