<svg xmlns="http://www.w3.org/2000/svg" width="42" height="42" viewBox="0 0 42 42">
  <g id="Group_1370" data-name="Group 1370" transform="translate(-0.5 0.432)">
    <g id="cart" transform="translate(7.928 11.812)">
      <path id="Path_245" data-name="Path 245" d="M21.724,19h-9.9a2.9,2.9,0,0,1-2.839-2.327L7.036,6.931H3.966A.966.966,0,0,1,3.966,5H7.828a.966.966,0,0,1,.966.773L10.88,16.3a.966.966,0,0,0,.966.773h9.879a.966.966,0,0,0,.966-.763l1.555-7.242A.966.966,0,0,0,23.279,7.9H13.622a.966.966,0,0,1,0-1.931h9.656a2.9,2.9,0,0,1,2.9,3.515L24.6,16.723A2.9,2.9,0,0,1,21.724,19Z" transform="translate(-3 -5)" fill="#c00d0d"/>
      <path id="Path_246" data-name="Path 246" d="M12.9,26.794a2.9,2.9,0,1,1,2.9-2.9A2.9,2.9,0,0,1,12.9,26.794Zm0-3.863a.966.966,0,1,0,.966.966A.966.966,0,0,0,12.9,22.931Z" transform="translate(-3.24 -5.549)" fill="#c00d0d"/>
      <path id="Path_247" data-name="Path 247" d="M21.9,26.794a2.9,2.9,0,1,1,2.9-2.9A2.9,2.9,0,0,1,21.9,26.794Zm0-3.863a.966.966,0,1,0,.966.966A.966.966,0,0,0,21.9,22.931Z" transform="translate(-3.55 -5.549)" fill="#c00d0d"/>
    </g>
    <g id="Path_1481" data-name="Path 1481" transform="translate(0.5 -0.432)" fill="none">
      <path d="M21,0a21,21,0,0,1,9.989,39.477A20.622,20.622,0,0,1,21,42,21,21,0,0,1,21,0Z" stroke="none"/>
      <path d="M 21 1 C 18.29957962036133 1 15.68045997619629 1.528659820556641 13.21540069580078 2.5712890625 C 10.83394050598145 3.578559875488281 8.694950103759766 5.020778656005859 6.857860565185547 6.857860565185547 C 5.020778656005859 8.694950103759766 3.578559875488281 10.83394050598145 2.5712890625 13.21540069580078 C 1.528659820556641 15.68045997619629 1 18.29957962036133 1 21 C 1 23.70042037963867 1.528659820556641 26.31954002380371 2.5712890625 28.78459930419922 C 3.578559875488281 31.16606140136719 5.020778656005859 33.30504989624023 6.857860565185547 35.14213943481445 C 8.694950103759766 36.97922134399414 10.83394050598145 38.42144012451172 13.21540069580078 39.4287109375 C 15.68045997619629 40.47134017944336 18.29957962036133 41 21 41 C 24.37405967712402 41 27.7476692199707 40.14936065673828 30.50022888183594 38.60430145263672 C 33.66971969604492 36.82921981811523 36.31245040893555 34.29351043701172 38.14271926879883 31.27132034301758 C 40.01197052001953 28.18478012084961 41 24.63302040100098 41 21 C 41 18.29957962036133 40.47134017944336 15.68045997619629 39.4287109375 13.21540069580078 C 38.42144012451172 10.83394050598145 36.97922134399414 8.694950103759766 35.14213943481445 6.857860565185547 C 33.30504989624023 5.020778656005859 31.16606140136719 3.578559875488281 28.78459930419922 2.5712890625 C 26.31954002380371 1.528659820556641 23.70042037963867 1 21 1 M 21 0 C 32.59798049926758 0 42 9.402019500732422 42 21 C 42 28.87503051757812 37.66527938842773 35.73762893676758 30.98886871337891 39.47679138183594 C 28.21963119506836 41.03121185302734 24.72294998168945 42 21 42 C 9.402019500732422 42 0 32.59798049926758 0 21 C 0 9.402019500732422 9.402019500732422 0 21 0 Z" stroke="none" fill="#3c3c3b"/>
    </g>
  </g>
</svg>
