<svg xmlns="http://www.w3.org/2000/svg" width="29.443" height="29.417" viewBox="0 0 29.443 29.417">
  <g id="Change_password" transform="translate(-19.707 -19.808)">
    <path id="Path_1510" data-name="Path 1510" d="M109.31,141.3a.7.7,0,1,0-1.242.647,13.313,13.313,0,0,1-21.224,15.558.7.7,0,0,0-1.2.5v3.543a.7.7,0,0,0,1.4,0v-1.975A14.715,14.715,0,0,0,109.31,141.3Z" transform="translate(-61.834 -113.574)" fill="#3c3c3b"/>
    <path id="Path_1511" data-name="Path 1511" d="M25.009,25.108a13.31,13.31,0,0,1,18.825,0,.7.7,0,0,0,1.2-.5V21.07a.7.7,0,1,0-1.4,0v1.974a14.715,14.715,0,0,0-22.261,18.27.7.7,0,1,0,1.242-.647,13.258,13.258,0,0,1,2.4-15.558Z" fill="#3c3c3b"/>
    <path id="Path_1512" data-name="Path 1512" d="M123.923,82.811a5.549,5.549,0,0,0-5.543,5.543v2.774h-.846a2.384,2.384,0,0,0-2.382,2.382v6.815a2.384,2.384,0,0,0,2.382,2.382h12.778a2.384,2.384,0,0,0,2.382-2.382V93.51a2.384,2.384,0,0,0-2.382-2.382h-.846V88.354a5.549,5.549,0,0,0-5.543-5.543Zm-4.142,5.543a4.142,4.142,0,1,1,8.284,0v2.774h-8.284Zm11.512,5.156v6.815a.982.982,0,0,1-.981.981H117.534a.982.982,0,0,1-.981-.981V93.51a.982.982,0,0,1,.981-.981h12.778A.982.982,0,0,1,131.293,93.51Z" transform="translate(-89.502 -59.08)" fill="#3c3c3b"/>
    <circle id="Ellipse_106" data-name="Ellipse 106" cx="1.401" cy="1.401" r="1.401" transform="translate(37.504 36.437)" fill="#3c3c3b"/>
    <circle id="Ellipse_107" data-name="Ellipse 107" cx="1.401" cy="1.401" r="1.401" transform="translate(33.02 36.437)" fill="#3c3c3b"/>
    <circle id="Ellipse_108" data-name="Ellipse 108" cx="1.401" cy="1.401" r="1.401" transform="translate(28.536 36.437)" fill="#3c3c3b"/>
  </g>
</svg>
