<svg xmlns="http://www.w3.org/2000/svg" xmlns:xlink="http://www.w3.org/1999/xlink" width="29.443" height="29.417" viewBox="0 0 29.443 29.417">
  <defs>
    <clipPath id="clip-path">
      <path id="path10338" d="M0-682.665H22.389v22.123H0Z" transform="translate(-1.679 681.006)" fill="#3c3c3b"/>
    </clipPath>
  </defs>
  <g id="Group_5113" data-name="Group 5113" transform="translate(-37.992 -722.792)">
    <g id="Change_password" transform="translate(18.285 702.983)">
      <path id="Path_1510" data-name="Path 1510" d="M109.31,141.3a.7.7,0,1,0-1.242.647,13.313,13.313,0,0,1-21.224,15.558.7.7,0,0,0-1.2.5v3.543a.7.7,0,0,0,1.4,0v-1.975A14.715,14.715,0,0,0,109.31,141.3Z" transform="translate(-61.834 -113.574)" fill="#3c3c3b"/>
      <path id="Path_1511" data-name="Path 1511" d="M25.009,25.108a13.31,13.31,0,0,1,18.825,0,.7.7,0,0,0,1.2-.5V21.07a.7.7,0,1,0-1.4,0v1.974a14.715,14.715,0,0,0-22.261,18.27.7.7,0,1,0,1.242-.647,13.258,13.258,0,0,1,2.4-15.558Z" fill="#3c3c3b"/>
    </g>
    <g id="g10332" transform="translate(44.053 1410.506)">
      <g id="g10334" transform="translate(-0.856 -683.408)">
        <g id="g10336" clip-path="url(#clip-path)">
          <g id="g10342" transform="translate(4.758 0.735)">
            <path id="path10344" d="M0-165.965a4.73,4.73,0,0,1,4.758-4.7,4.73,4.73,0,0,1,4.758,4.7,4.73,4.73,0,0,1-4.758,4.7A4.73,4.73,0,0,1,0-165.965Z" transform="translate(0 170.666)" fill="none" stroke="#3c3c3b" stroke-linecap="round" stroke-linejoin="round" stroke-width="1.5"/>
          </g>
          <g id="g10346" transform="translate(0.743 10.137)">
            <path id="path10348" d="M-495.26-37.6a8.213,8.213,0,0,1,2.085,1.287,3.645,3.645,0,0,1,1.257,2.753V-32.2a1.478,1.478,0,0,1-1.487,1.469h-14.571a1.478,1.478,0,0,1-1.487-1.469v-1.359a3.645,3.645,0,0,1,1.257-2.753,11.363,11.363,0,0,1,7.516-2.352" transform="translate(509.463 38.667)" fill="none" stroke="#3c3c3b" stroke-linecap="round" stroke-width="1.5"/>
          </g>
        </g>
      </g>
    </g>
  </g>
</svg>
