<svg xmlns="http://www.w3.org/2000/svg" xmlns:xlink="http://www.w3.org/1999/xlink" width="32.697" height="32.697" viewBox="0 0 32.697 32.697">
  <defs>
    <clipPath id="clip-path">
      <path id="path459" d="M0-682.665H20.7v20.7H0Z" transform="translate(0 682.665)" fill="#535556"/>
    </clipPath>
  </defs>
  <g id="Group_2231" data-name="Group 2231" transform="translate(-60 -883)">
    <g id="Group_2232" data-name="Group 2232">
      <g id="Path_1551" data-name="Path 1551" transform="translate(60 883)" fill="none" opacity="0.6">
        <path d="M16.349,0a16.351,16.351,0,0,1,8.177,30.509A16.091,16.091,0,0,1,16.349,32.7a16.349,16.349,0,0,1,0-32.7Z" stroke="none"/>
        <path d="M 16.34869384765625 1.000003814697266 C 12.24891471862793 1.000003814697266 8.394514083862305 2.59654426574707 5.495532989501953 5.495532989501953 C 2.59654426574707 8.394514083862305 1.000003814697266 12.24891471862793 1.000003814697266 16.34869384765625 C 1.000003814697266 20.4484748840332 2.59654426574707 24.3028736114502 5.495532989501953 27.20185470581055 C 8.394514083862305 30.10084342956543 12.24891471862793 31.69738388061523 16.34869384765625 31.69738388061523 C 19.07664489746094 31.69738388061523 21.79868316650391 30.97023391723633 24.01399421691895 29.6495246887207 C 28.8250846862793 26.78586387634277 31.69738388061523 21.81359481811523 31.69738388061523 16.34869384765625 C 31.69738388061523 12.24891471862793 30.10084342956543 8.394514083862305 27.20185470581055 5.495532989501953 C 24.3028736114502 2.59654426574707 20.4484748840332 1.000003814697266 16.34869384765625 1.000003814697266 M 16.34869384765625 3.814697265625e-06 C 25.37782287597656 3.814697265625e-06 32.69738388061523 7.319562911987305 32.69738388061523 16.34869384765625 C 32.69738388061523 22.32598495483398 29.48963356018066 27.55405426025391 24.52546310424805 30.50882339477539 C 22.25708389282227 31.86117362976074 19.40054321289062 32.69738388061523 16.34869384765625 32.69738388061523 C 7.319562911987305 32.69738388061523 3.814697265625e-06 25.37782287597656 3.814697265625e-06 16.34869384765625 C 3.814697265625e-06 7.319562911987305 7.319562911987305 3.814697265625e-06 16.34869384765625 3.814697265625e-06 Z" stroke="none" fill="#ededed"/>
      </g>
    </g>
    <g id="g453" transform="translate(65.682 888.682)" opacity="0.6">
      <g id="g455" transform="translate(0 0)">
        <g id="g457" transform="translate(0 0)" clip-path="url(#clip-path)">
          <g id="g463" transform="translate(0.606 3.205)">
            <path id="path465" d="M-17.284-73.835a1.213,1.213,0,0,1-.54-1.009h0a1.3,1.3,0,0,1,1.3-1.3H.364a1.3,1.3,0,0,1,1.3,1.3h0a1.213,1.213,0,0,1-.54,1.009L-7.36-68.18a1.3,1.3,0,0,1-1.441,0Z" transform="translate(17.824 76.144)" fill="none" stroke="#ededed" stroke-linecap="round" stroke-linejoin="round" stroke-width="1"/>
          </g>
          <g id="g467" transform="translate(0.606 4.504)">
            <path id="path469" d="M0,0V11.692a1.3,1.3,0,0,0,1.3,1.3H18.187a1.3,1.3,0,0,0,1.3-1.3V0" fill="none" stroke="#ededed" stroke-linecap="round" stroke-linejoin="round" stroke-width="1"/>
          </g>
        </g>
      </g>
    </g>
  </g>
</svg>
