<svg xmlns="http://www.w3.org/2000/svg" width="29.477" height="29.476" viewBox="0 0 29.477 29.476">
  <g id="delivery-box_1_" data-name="delivery-box (1)" transform="translate(0.001 0)">
    <path id="Path_1520" data-name="Path 1520" d="M14.728,28.164a.61.61,0,0,1-.284-.07L.33,20.725A.614.614,0,0,1,0,20.181V6.364a.614.614,0,0,1,.888-.549L15,12.877a.615.615,0,0,1,.339.549V27.55a.614.614,0,0,1-.3.526A.605.605,0,0,1,14.728,28.164Zm-13.5-8.355,12.886,6.728V13.805L1.228,7.358Z" transform="translate(0 1.312)" fill="#3c3c3b"/>
    <path id="Path_1521" data-name="Path 1521" d="M12.122,28.164a.613.613,0,0,1-.614-.614V13.426a.615.615,0,0,1,.339-.549L25.961,5.815a.615.615,0,0,1,.889.549V20.181a.614.614,0,0,1-.33.544L12.406,28.094a.61.61,0,0,1-.284.07Zm.614-14.359V26.537l12.886-6.728V7.358Zm13.5,6.375h.012Z" transform="translate(2.626 1.312)" fill="#3c3c3b"/>
    <path id="Path_1522" data-name="Path 1522" d="M.614,8.29A.614.614,0,0,1,.339,7.127L14.473.065a.617.617,0,0,1,.549,0L29.136,7.127a.614.614,0,1,1-.549,1.1L14.748,1.3.889,8.225a.611.611,0,0,1-.275.065Z" transform="translate(0)" fill="#3c3c3b"/>
    <path id="Path_1523" data-name="Path 1523" d="M20.736,17.8a.614.614,0,0,1-.614-.614V10.806L6.347,3.913a.615.615,0,0,1,.55-1.1L21.011,9.876a.618.618,0,0,1,.339.55v6.755a.614.614,0,0,1-.614.614Z" transform="translate(1.371 0.627)" fill="#3c3c3b"/>
  </g>
</svg>
