<svg xmlns="http://www.w3.org/2000/svg" width="53.204" height="41.385" viewBox="0 0 53.204 41.385">
  <g id="diamond_1_" data-name="diamond (1)" transform="translate(-15.541 -23.807)">
    <path id="Path_1534" data-name="Path 1534" d="M64.028,28.579a.824.824,0,0,0,0-.176.871.871,0,0,0-.038-.251L63.953,28a.076.076,0,0,1-.013-.05.975.975,0,0,0-.2-.3L54.163,16.992a1.238,1.238,0,0,0-.9-.4H21.626a1.217,1.217,0,0,0-.9.4L11.157,27.637a1.512,1.512,0,0,0-.226.327c-.013.025-.013.05-.025.075s-.013.05-.025.075a1.135,1.135,0,0,0-.05.352v.1a1.251,1.251,0,0,0,.1.415c0,.013.013.013.013.025a1.286,1.286,0,0,0,.176.276l25.386,28.29c.025.038.075.05.1.075a.825.825,0,0,0,.214.151,1.149,1.149,0,0,0,.176.088.875.875,0,0,0,.314.063c.038,0,.075.025.113.025s.063-.013.088-.013a1.591,1.591,0,0,0,.352-.075A1.371,1.371,0,0,0,38,57.812a1.2,1.2,0,0,0,.251-.189c.025-.025.05-.025.075-.05l25.3-28.189v-.013l.075-.088a.842.842,0,0,0,.113-.176,1.563,1.563,0,0,0,.126-.251.988.988,0,0,0,.088-.276Zm-3.934-1.357H47.9l-3.695-8.207h8.508ZM29.443,29.66H45.4l-7.968,23.3Zm.189-2.438,3.695-8.207h8.207l3.695,8.207ZM22.166,19h8.5L26.967,27.21H14.789Zm4.7,10.657,7.478,21.8L14.776,29.66ZM40.527,51.452l7.465-21.8h12.1Z" transform="translate(4.711 7.217)" fill="#d49b9b"/>
  </g>
</svg>
