<svg xmlns="http://www.w3.org/2000/svg" width="13" height="13" viewBox="0 0 13 13">
  <g id="arrow" transform="translate(-2.5 -2.5)" opacity="0.3">
    <path id="Path_622" data-name="Path 622" d="M14.667,20.667H3.333a.333.333,0,1,1,0-.667H14.667a.333.333,0,1,1,0,.667Z" transform="translate(0 -5.667)" fill="#3c3c3b" stroke="#3c3c3b" stroke-width="1"/>
    <path id="Path_623" data-name="Path 623" d="M6.1,9.236,9.764,12.9a.333.333,0,0,0,.471,0L13.9,9.236a.333.333,0,1,0-.471-.471l-3.1,3.1V3.333a.333.333,0,1,0-.667,0v8.529l-3.1-3.1a.333.333,0,1,0-.471.471Z" transform="translate(-1)" fill="#3c3c3b" stroke="#3c3c3b" stroke-width="1"/>
  </g>
</svg>
