<svg xmlns="http://www.w3.org/2000/svg" width="37.011" height="37.011" viewBox="0 0 37.011 37.011">
  <g id="Group_2168" data-name="Group 2168" transform="translate(-52.489 -619.994)">
    <path id="edit-text" d="M4.067,15.411h.088l2.351-.217a1.418,1.418,0,0,0,.867-.409L16.249,5.91a2.189,2.189,0,0,0,0-3.114l-.57-.57a2.259,2.259,0,0,0-3.122,0L11.426,3.358h0L3.69,11.094a1.366,1.366,0,0,0-.4.867l-.217,2.351a1.031,1.031,0,0,0,.289.8.99.99,0,0,0,.706.3ZM14.122,2.78a.971.971,0,0,1,.706.3l.57.57a.99.99,0,0,1,.3.706.977.977,0,0,1-.3.706l-.706.706L12.71,3.783l.706-.706a1,1,0,0,1,.706-.3ZM4.484,12.073a.171.171,0,0,1,.056-.12l7.311-7.319,1.982,1.982L6.523,13.927a.335.335,0,0,1-.12.056l-2.111.193.193-2.111Zm14.02,5.9a.606.606,0,0,1-.6.6H1.852a.6.6,0,1,1,0-1.2H17.9A.606.606,0,0,1,18.5,17.971Z" transform="translate(61.118 628.413)" fill="#c00d0d"/>
    <path id="scan" d="M66.006,48a18.006,18.006,0,1,0,12.54,30.915,17.764,17.764,0,0,0,5.465-12.909A18.026,18.026,0,0,0,66.006,48Z" transform="translate(4.989 572.494)" fill="none" stroke="#3c3c3b" stroke-width="1"/>
  </g>
</svg>
