<svg id="edit_2_" data-name="edit (2)" xmlns="http://www.w3.org/2000/svg" width="29.475" height="29.477" viewBox="0 0 29.475 29.477">
  <path id="Path_1513" data-name="Path 1513" d="M12.008,26.876a.62.62,0,0,1-.435-.179.614.614,0,0,1-.168-.554l.868-4.342a.6.6,0,0,1,.168-.314l9.553-9.553a1.846,1.846,0,0,1,2.6,0l1.737,1.737a1.844,1.844,0,0,1,0,2.605l-9.553,9.553a.611.611,0,0,1-.314.168l-4.342.868A.652.652,0,0,1,12.008,26.876Zm1.435-4.654-.651,3.256,3.256-.651,9.421-9.421a.615.615,0,0,0,0-.868L23.733,12.8a.615.615,0,0,0-.868,0Zm2.907,3.171h.012Z" transform="translate(2.6 2.601)" fill="#3c3c3b"/>
  <path id="Path_1514" data-name="Path 1514" d="M11.668,25.108H3.07A3.073,3.073,0,0,1,0,22.037V6.07A3.073,3.073,0,0,1,3.07,3H5.527a.614.614,0,0,1,0,1.228H3.07A1.845,1.845,0,0,0,1.228,6.07V22.037A1.845,1.845,0,0,0,3.07,23.879h8.6a.614.614,0,1,1,0,1.228Z" transform="translate(0 0.685)" fill="#3c3c3b"/>
  <path id="Path_1515" data-name="Path 1515" d="M17.527,14.054a.614.614,0,0,1-.614-.614V6.07A1.845,1.845,0,0,0,15.07,4.228H12.614a.614.614,0,0,1,0-1.228H15.07a3.073,3.073,0,0,1,3.07,3.07V13.44A.614.614,0,0,1,17.527,14.054Z" transform="translate(2.738 0.685)" fill="#3c3c3b"/>
  <path id="Path_1516" data-name="Path 1516" d="M13.211,7.369H5.842A1.845,1.845,0,0,1,4,5.527V3.07a.614.614,0,0,1,.614-.614h1.9a3.071,3.071,0,0,1,6.018,0h1.9a.614.614,0,0,1,.614.614V5.527A1.845,1.845,0,0,1,13.211,7.369ZM5.228,3.685V5.527a.616.616,0,0,0,.614.614h7.369a.616.616,0,0,0,.614-.614V3.685H11.983a.614.614,0,0,1-.614-.614,1.842,1.842,0,0,0-3.685,0,.614.614,0,0,1-.614.614Z" transform="translate(0.913)" fill="#3c3c3b"/>
  <path id="Path_1517" data-name="Path 1517" d="M15.9,9.228H3.614A.614.614,0,1,1,3.614,8H15.9a.614.614,0,0,1,0,1.228Z" transform="translate(0.685 1.826)" fill="#3c3c3b"/>
  <path id="Path_1518" data-name="Path 1518" d="M15.9,12.228H3.614a.614.614,0,0,1,0-1.228H15.9a.614.614,0,0,1,0,1.228Z" transform="translate(0.685 2.51)" fill="#3c3c3b"/>
  <path id="Path_1519" data-name="Path 1519" d="M15.9,15.228H3.614a.614.614,0,0,1,0-1.228H15.9a.614.614,0,0,1,0,1.228Z" transform="translate(0.685 3.195)" fill="#3c3c3b"/>
</svg>
