<svg xmlns="http://www.w3.org/2000/svg" width="24.976" height="24.57" viewBox="0 0 24.976 24.57">
  <path id="edit-text_1_" data-name="edit-text (1)" d="M5.328,21.593h.128l3.4-.314a2.052,2.052,0,0,0,1.255-.592L22.962,7.838a3.169,3.169,0,0,0,0-4.507l-.825-.825a3.27,3.27,0,0,0-4.519,0L15.98,4.144h0l-11.2,11.2A1.978,1.978,0,0,0,4.2,16.6L3.887,20a1.493,1.493,0,0,0,.418,1.162,1.433,1.433,0,0,0,1.022.43ZM19.883,3.308a1.406,1.406,0,0,1,1.022.43l.825.825a1.433,1.433,0,0,1,.43,1.022,1.414,1.414,0,0,1-.43,1.022L20.708,7.629,17.839,4.76l1.022-1.022a1.454,1.454,0,0,1,1.022-.43ZM5.932,16.76a.247.247,0,0,1,.081-.174L16.6,5.991l2.869,2.869L8.882,19.444a.486.486,0,0,1-.174.081L5.653,19.8l.279-3.055ZM26.226,25.3a.878.878,0,0,1-.871.871H2.121a.871.871,0,1,1,0-1.743H25.355A.878.878,0,0,1,26.226,25.3Z" transform="translate(-1.25 -1.6)" fill="#3c3c3b"/>
</svg>
