<svg xmlns="http://www.w3.org/2000/svg" width="24.388" height="18.92" viewBox="0 0 24.388 18.92">
  <g id="Layer_2" data-name="Layer 2" transform="translate(-4.045 -7.849)">
    <g id="rules" transform="translate(4.045 7.849)">
      <path id="Path_1527" data-name="Path 1527" d="M136.325,165.118l-2.38,2.358a1.348,1.348,0,1,1-1.9-1.913l2.37-2.349-2.365-2.352a1.349,1.349,0,1,1,1.9-1.917l2.38,2.358,2.347-2.351a1.349,1.349,0,1,1,1.908,1.908l-2.35,2.35,2.35,2.355a1.349,1.349,0,1,1-1.908,1.908ZM118,163.22V163.2a1.349,1.349,0,0,1,1.349-1.348H128.3a1.349,1.349,0,0,1,1.349,1.349v.018a1.349,1.349,0,0,1-1.349,1.349h-8.948A1.349,1.349,0,0,1,118,163.22Zm14.038-11.382a1.35,1.35,0,0,1,1.909,0l1.814,1.814,4.308-4.308a1.349,1.349,0,0,1,1.919.012l.016.017a1.348,1.348,0,0,1-.009,1.894l-5.6,5.628a.85.85,0,0,1-1.2,0l-3.151-3.151A1.349,1.349,0,0,1,132.038,151.838ZM118,153.694v-.019a1.349,1.349,0,0,1,1.349-1.349H128.3a1.349,1.349,0,0,1,1.349,1.349v.019a1.349,1.349,0,0,1-1.349,1.348h-8.948A1.349,1.349,0,0,1,118,153.694Z" transform="translate(-118 -148.949)" fill="#ededed"/>
    </g>
  </g>
</svg>
