<svg xmlns="http://www.w3.org/2000/svg" width="30.355" height="33.844" viewBox="0 0 30.355 33.844">
  <path id="Intersection_12" data-name="Intersection 12" d="M10.065-6814.656a1.009,1.009,0,0,1-1-1.023,1.008,1.008,0,0,1,1-1.021H15.5a1.008,1.008,0,0,1,1,1.021,1.009,1.009,0,0,1-1,1.023Zm-1.095-3.838a2.133,2.133,0,0,1-2.1-2.157v-.872a4.949,4.949,0,0,0-1.389-3.352,10.381,10.381,0,0,1-2.774-7.1,10.411,10.411,0,0,1,2.96-7.322,9.864,9.864,0,0,1,7.1-3.02H12.8a9.86,9.86,0,0,1,7.1,3.02,10.413,10.413,0,0,1,2.961,7.322,10.374,10.374,0,0,1-2.774,7.1,4.954,4.954,0,0,0-1.39,3.355v.872a2.133,2.133,0,0,1-2.1,2.157Zm-1.9-19.36a8.364,8.364,0,0,0-2.375,5.876,8.317,8.317,0,0,0,2.221,5.689,7,7,0,0,1,1.942,4.763v.874a.114.114,0,0,0,.112.115h7.623a.114.114,0,0,0,.112-.115v-.874a7.016,7.016,0,0,1,1.942-4.763,8.3,8.3,0,0,0,2.219-5.689,8.364,8.364,0,0,0-2.375-5.876,7.909,7.909,0,0,0-5.694-2.423.074.074,0,0,1-.028,0A7.917,7.917,0,0,0,7.071-6837.854Zm17.944,4.809a1.008,1.008,0,0,1-1-1.021,1.009,1.009,0,0,1,1-1.023h1.949a1.008,1.008,0,0,1,1,1.023,1.008,1.008,0,0,1-1,1.021Zm-26.414,0a1.009,1.009,0,0,1-1-1.021,1.01,1.01,0,0,1,1-1.023H.55a1.01,1.01,0,0,1,1,1.023,1.009,1.009,0,0,1-1,1.021Zm5.615-8.367-1.378-1.416a1.037,1.037,0,0,1,0-1.444.975.975,0,0,1,1.408,0l1.38,1.415a1.039,1.039,0,0,1,0,1.445.982.982,0,0,1-.7.3A.982.982,0,0,1,4.216-6841.412Zm15.723,0a1.04,1.04,0,0,1,0-1.444l1.38-1.415a.979.979,0,0,1,1.409,0,1.04,1.04,0,0,1,0,1.444l-1.38,1.415a.976.976,0,0,1-.7.3A.979.979,0,0,1,19.939-6841.414Zm-8.154-4.063v-2a1.011,1.011,0,0,1,1-1.022,1.011,1.011,0,0,1,1,1.022v2a1.011,1.011,0,0,1-1,1.023A1.011,1.011,0,0,1,11.785-6845.477Z" transform="translate(2.396 6848.5)" fill="#3c3c3b"/>
</svg>
