<svg xmlns="http://www.w3.org/2000/svg" width="28.909" height="32.024" viewBox="0 0 28.909 32.024">
  <path id="Intersection_13" data-name="Intersection 13" d="M11.194-6815.566a.957.957,0,0,1-.949-.966.959.959,0,0,1,.949-.967h5.174a.958.958,0,0,1,.949.967.956.956,0,0,1-.949.966Zm-1.043-3.631a2.022,2.022,0,0,1-2-2.04v-.827a4.663,4.663,0,0,0-1.325-3.17,9.792,9.792,0,0,1-2.641-6.721A9.825,9.825,0,0,1,7-6838.885a9.423,9.423,0,0,1,6.764-2.858H13.8a9.418,9.418,0,0,1,6.761,2.858,9.825,9.825,0,0,1,2.82,6.929,9.787,9.787,0,0,1-2.641,6.719,4.667,4.667,0,0,0-1.325,3.172v.827a2.023,2.023,0,0,1-2,2.04Zm-1.808-18.319a7.879,7.879,0,0,0-2.262,5.559,7.838,7.838,0,0,0,2.114,5.384,6.612,6.612,0,0,1,1.851,4.508v.827a.106.106,0,0,0,.1.106h7.261a.106.106,0,0,0,.1-.106v-.827a6.612,6.612,0,0,1,1.851-4.508,7.826,7.826,0,0,0,2.112-5.384,7.879,7.879,0,0,0-2.262-5.559,7.557,7.557,0,0,0-5.424-2.292.148.148,0,0,1-.026,0A7.552,7.552,0,0,0,8.343-6837.517Zm17.087,4.552a.96.96,0,0,1-.949-.968.959.959,0,0,1,.949-.967h1.858a.958.958,0,0,1,.949.967.959.959,0,0,1-.949.968Zm-25.154,0a.959.959,0,0,1-.949-.968.958.958,0,0,1,.949-.967H2.133a.959.959,0,0,1,.949.967.959.959,0,0,1-.949.968Zm5.348-7.919-1.313-1.34a.976.976,0,0,1,0-1.368.934.934,0,0,1,1.34,0l1.313,1.34a.976.976,0,0,1,0,1.368.931.931,0,0,1-.67.284A.934.934,0,0,1,5.625-6840.883Zm14.973,0a.977.977,0,0,1,0-1.366l1.315-1.34a.939.939,0,0,1,1.342,0,.98.98,0,0,1,0,1.368l-1.315,1.338a.931.931,0,0,1-.67.284A.938.938,0,0,1,20.6-6840.885Zm-7.764-3.844v-1.894a.958.958,0,0,1,.949-.968.958.958,0,0,1,.947.968v1.894a.956.956,0,0,1-.947.966A.956.956,0,0,1,12.834-6844.729Z" transform="translate(0.672 6847.591)" fill="#ededed"/>
</svg>
