<svg xmlns="http://www.w3.org/2000/svg" width="41.617" height="41.606" viewBox="0 0 41.617 41.606">
  <g id="Group_2174" data-name="Group 2174" transform="translate(-168.762 -371.762)">
    <g id="fall-in-value" transform="translate(168.762 371.762)">
      <path id="Path_691" data-name="Path 691" d="M28.085,106.052c.236-.236.955-.955.659-1.64l-1.714-3.973V97.962a.5.5,0,0,0-.991,0v1.773a3.648,3.648,0,0,0-.695-.035,32.53,32.53,0,0,0-8.813,2.461v-7a.5.5,0,1,0-.991,0v7.406c-4.011,1.718-7.7,3.436-10.533,5.765V93.044a.5.5,0,0,0-.991,0V109.66a.908.908,0,0,0,.041.58l1.755,4.067c.252.585,1.03.649,1.46.649a12.716,12.716,0,0,0,2.9-.448C15.288,113.2,24.191,109.541,28.085,106.052ZM7.757,107.561a57.146,57.146,0,0,1,7.786-3.926.5.5,0,0,0,.989-.037v-.37c2.566-1.05,7.879-2.9,9.514-2.475a2.293,2.293,0,0,1-.463.578,9.322,9.322,0,0,1-.957.793,46.675,46.675,0,0,1-8.5,4.563,46.932,46.932,0,0,1-9.109,3.046,9.771,9.771,0,0,1-1.193.156,2.474,2.474,0,0,1-.815-.053v-.017c.105-.218.585-.9,2.749-2.257Zm16.9-.229-.5-1.148a.5.5,0,1,0-.91.393l.544,1.262c-.632.361-1.313.728-2.033,1.1l-.438-1.015a.5.5,0,0,0-.91.393l.46,1.066c-.813.4-1.665.794-2.541,1.179l-.419-.971a.5.5,0,0,0-.91.393l.419.971c-.88.373-1.753.721-2.6,1.039l-.46-1.067a.5.5,0,0,0-.91.393l.438,1.015c-.761.272-1.5.515-2.192.727l-.544-1.262a.5.5,0,0,0-.91.393l.5,1.148c-.513.143-1.132.3-1.581.388l-.648-1.5a.5.5,0,0,0-.91.393l.554,1.284a2.832,2.832,0,0,1-1.449-.019l-1.291-2.993c4.751-.035,17.842-5.687,21.112-9.109l1.291,2.993c-.021.074-.158.4-.981,1.067l-.554-1.284a.5.5,0,0,0-.91.393l.648,1.5c-.375.263-.911.609-1.367.884Z" transform="translate(-3.988 -85.242)" fill="#3c3c3b"/>
      <path id="Path_692" data-name="Path 692" d="M207.4,257.465a.5.5,0,0,0-.991,0v13.306c-2.467-1.432-5.594-2.2-8.967-2.992v-4.94a.5.5,0,1,0-.991,0v4.731a56.534,56.534,0,0,0-9.307-1.192,10.693,10.693,0,0,0-3.223.268V264.8a.5.5,0,0,0-.991,0v2.761l-.826,4.29c-.11.572.186,1.385,3.483,2.614a60.635,60.635,0,0,0,17.361,3.236c2.986,0,3.5-.6,3.607-1.14l.835-4.336h0a.9.9,0,0,0,.009-.3V257.465ZM187.5,267.379a57.842,57.842,0,0,1,8.958,1.2v.286a.5.5,0,1,0,.991-.073c2.581.551,7.932,2.032,8.939,3.231a3.834,3.834,0,0,1-1.366.3,40.54,40.54,0,0,1-9.229-.806,48.462,48.462,0,0,1-10.279-2.837,8.353,8.353,0,0,1-1.077-.573,2.052,2.052,0,0,1-.481-.4c.19-.115.948-.423,3.545-.325Zm18.1,8.952a2.825,2.825,0,0,1-1.4.328l.263-1.367a.5.5,0,1,0-.973-.187l-.308,1.6c-.456.006-1.09-.009-1.619-.038l.236-1.223a.5.5,0,0,0-.973-.187l-.259,1.344c-.723-.057-1.489-.136-2.287-.237l.208-1.081a.5.5,0,0,0-.973-.187l-.219,1.136c-.893-.128-1.816-.28-2.752-.453l.2-1.034a.5.5,0,0,0-.973-.187l-.2,1.034c-.934-.187-1.847-.388-2.723-.6l.219-1.136a.5.5,0,0,0-.973-.187l-.208,1.081c-.779-.2-1.52-.414-2.212-.63l.259-1.344a.5.5,0,0,0-.973-.187l-.235,1.222c-.5-.17-1.1-.391-1.517-.566l.308-1.6a.5.5,0,1,0-.973-.187l-.263,1.367c-.94-.472-1.144-.759-1.181-.826l.614-3.188c3.837,2.619,18.045,5.335,22.506,4.334l-.614,3.188Z" transform="translate(-167.383 -236.09)" fill="#3c3c3b"/>
      <path id="Path_693" data-name="Path 693" d="M292.657,293.7v3a.5.5,0,0,0,.991,0v-3a.5.5,0,1,0-.991,0Z" transform="translate(-268.822 -269.328)" fill="#3c3c3b"/>
      <path id="Path_694" data-name="Path 694" d="M57.522,108.1a.5.5,0,0,0,.5-.5V99.65a.5.5,0,0,0-.991,0V107.6A.5.5,0,0,0,57.522,108.1Z" transform="translate(-52.648 -91.303)" fill="#3c3c3b"/>
      <path id="Path_695" data-name="Path 695" d="M232.118,14.582a.894.894,0,0,0,.034-.573V4.552a.5.5,0,0,0-.991,0v8.132a22.789,22.789,0,0,0-3.708-2.484V7.55a.5.5,0,0,0-.991,0V9.657c-.787-.42-1.63-.844-2.51-1.262a.5.5,0,1,0-.425.9c1.118.531,2.091,1.029,2.935,1.49v.792a.5.5,0,0,0,.991,0v-.233c2.448,1.426,3.522,2.424,3.708,2.823v.032a1.93,1.93,0,0,1-.557.062,7.462,7.462,0,0,1-1.093-.1c-.636-.1-1.262-.246-1.887-.407a63.153,63.153,0,0,1-12.1-4.849,32.8,32.8,0,0,1-3.94-2.38,9.5,9.5,0,0,1-1-.821,2.3,2.3,0,0,1-.468-.583c2.122-.348,6.832,1.418,9.8,2.592a.5.5,0,1,0,.374-.917c-2.555-1-10.222-4.039-11.12-2.081,0,0-1.754,4.066-1.755,4.067-.482,1.181,1.78,2.583,2.847,3.311a62.215,62.215,0,0,0,15.723,6.783,12.76,12.76,0,0,0,2.9.448c.43,0,1.207-.064,1.46-.649.006-.017,1.757-4.068,1.761-4.083Zm-2.656,3.656a2.83,2.83,0,0,1-1.449.018l.554-1.284a.5.5,0,1,0-.91-.393l-.648,1.5c-.449-.092-1.068-.245-1.581-.388l.5-1.148a.5.5,0,0,0-.91-.393l-.544,1.262c-.7-.212-1.431-.456-2.192-.727l.438-1.015a.5.5,0,1,0-.91-.393l-.46,1.067c-.848-.318-1.72-.667-2.6-1.039l.419-.971a.5.5,0,0,0-.91-.393l-.419.971c-.875-.385-1.727-.78-2.541-1.179l.46-1.066a.5.5,0,1,0-.91-.393l-.438,1.015c-.72-.368-1.4-.735-2.033-1.1l.544-1.262a.5.5,0,1,0-.91-.393l-.5,1.148c-.456-.275-.991-.621-1.367-.884l.648-1.5a.5.5,0,0,0-.91-.393l-.554,1.284c-.822-.668-.959-.993-.981-1.067l1.291-2.993c3.329,3.476,16.515,9.107,21.112,9.109l-1.291,2.993Z" transform="translate(-190.566 -4.057)" fill="#3c3c3b"/>
      <path id="Path_696" data-name="Path 696" d="M378.42,47.062a.5.5,0,1,0-.5-.5A.5.5,0,0,0,378.42,47.062Z" transform="translate(-347.049 -42.605)" fill="#3c3c3b"/>
    </g>
  </g>
</svg>
