<svg xmlns="http://www.w3.org/2000/svg" width="17.698" height="23.143" viewBox="0 0 17.698 23.143">
  <g id="Group_1960" data-name="Group 1960" transform="translate(-206.151 -434)">
    <path id="copy" d="M22.35,2.5a3.382,3.382,0,0,0-2.406-1H12.9A3.407,3.407,0,0,0,9.5,4.9V21.24a3.407,3.407,0,0,0,3.4,3.4H23.794a3.407,3.407,0,0,0,3.4-3.4V8.754a3.379,3.379,0,0,0-1-2.407Zm-1.96.419a2.054,2.054,0,0,1,1,.544l3.85,3.85a2.029,2.029,0,0,1,.545,1h-3.35a2.044,2.044,0,0,1-2.042-2.042ZM25.836,21.24a2.044,2.044,0,0,1-2.042,2.042H12.9a2.044,2.044,0,0,1-2.042-2.042V4.9A2.044,2.044,0,0,1,12.9,2.861H19.03v3.4a3.407,3.407,0,0,0,3.4,3.4h3.4Z" transform="translate(196.651 432.5)" fill="#3c3c3b"/>
    <path id="Path_565" data-name="Path 565" d="M135.731,176.705a13.1,13.1,0,0,1-1.081-.933c-.344-.344-.651-.678-.918-1a10.123,10.123,0,0,0,.6-2.3c0-1.5-.542-1.809-1.356-1.809-.619,0-1.356.321-1.356,1.852a4.335,4.335,0,0,0,1.1,2.446c-.179.547-.39,1.178-.627,1.889-.114.341-.238.657-.368.95-.106.047-.21.1-.31.145-.359.18-.7.341-1.017.491-1.444.684-2.4,1.136-2.4,2.028,0,.648.7,1.05,1.356,1.05.841,0,2.11-1.123,3.037-3.014a17.99,17.99,0,0,1,3.1-.837,5.187,5.187,0,0,0,2,1.139c1.121,0,1.356-.648,1.356-1.192,0-1.069-1.221-1.069-1.809-1.069A10.707,10.707,0,0,0,135.731,176.705Zm-6.375,3.908a.714.714,0,0,1-.452-.145c0-.321.956-.774,1.881-1.212l.179-.084C130.285,180.157,129.613,180.613,129.356,180.613Zm3.165-8.1c0-.948.294-.948.452-.948.32,0,.452,0,.452.9a7.25,7.25,0,0,1-.36,1.412A2.778,2.778,0,0,1,132.521,172.518Zm.347,4.86q.042-.118.082-.238c.168-.5.319-.956.453-1.363q.282.31.607.635c.085.085.295.276.575.514C134.028,177.047,133.435,177.2,132.868,177.378Zm5.079.235c0,.2,0,.287-.419.29a3.333,3.333,0,0,1-.759-.434c.128-.014.222-.021.275-.021C137.711,177.448,137.9,177.514,137.947,177.613Z" transform="translate(81 271.008)" fill="#3c3c3b" stroke="#3c3c3b" stroke-width="0.25"/>
  </g>
</svg>
