<svg xmlns="http://www.w3.org/2000/svg" xmlns:xlink="http://www.w3.org/1999/xlink" width="48" height="48" viewBox="0 0 48 48">
  <defs>
    <clipPath id="clip-path">
      <rect id="Rectangle_1071" data-name="Rectangle 1071" width="48" height="48" transform="translate(-3.67 -3.67)" fill="#ededed"/>
    </clipPath>
  </defs>
  <g id="Group_2058" data-name="Group 2058" transform="translate(3.67 3.67)">
    <g id="Group_2057" data-name="Group 2057" clip-path="url(#clip-path)">
      <path id="Path_737" data-name="Path 737" d="M36.6,20.235l-2.933-6.6a.726.726,0,0,0-.348-.347l.006-.011L24.315,8.771l1.877-1.924a.733.733,0,0,0-.414-1.237L21.1,4.9,19,.422a.734.734,0,0,0-1.328,0L15.57,4.9l-4.68.715a.733.733,0,0,0-.414,1.237l1.877,1.924L3.338,13.277l.006.011A.729.729,0,0,0,3,13.635l-2.933,6.6a.734.734,0,0,0,.342.954l2.529,1.264V28.6a.734.734,0,0,0,.4.656L18.005,36.59a.732.732,0,0,0,.656,0l14.667-7.333a.733.733,0,0,0,.406-.656V22.454l2.528-1.264a.733.733,0,0,0,.342-.954M16.178,6.286a.735.735,0,0,0,.554-.414l1.6-3.414,1.6,3.414a.734.734,0,0,0,.553.414l3.656.559-2.67,2.736a.734.734,0,0,0-.2.631l.622,3.816-3.21-1.775a.733.733,0,0,0-.71,0l-3.211,1.775.622-3.816a.732.732,0,0,0-.2-.631l-2.67-2.736Zm-2.295,4.055-.805,4.941a.733.733,0,0,0,1.078.76l4.178-2.309,4.177,2.309a.734.734,0,0,0,1.079-.76l-.806-4.941.456-.468,8.12,4.061L18.334,20.446,5.306,13.934l8.12-4.061.456.468M4.025,14.932l13.2,6.6L13.714,26.2,1.687,20.191ZM4.4,23.187l9.2,4.6a.732.732,0,0,0,.914-.216L17.6,23.466v11.28l-13.2-6.6Zm27.867,4.96-13.2,6.6V23.466l3.08,4.107a.732.732,0,0,0,.914.216l9.206-4.6ZM22.953,26.2,19.448,21.53l13.194-6.6,2.337,5.258Z" transform="translate(1.996 1.996)" fill="#ededed"/>
      <path id="Path_738" data-name="Path 738" d="M9.306,5.456a.813.813,0,0,0,1.15-1.15L8.731,2.581a.813.813,0,0,0-1.15,1.15Z" transform="translate(-1.372 -0.438)" fill="#ededed"/>
      <path id="Path_739" data-name="Path 739" d="M5.813,9.626h2.44A.813.813,0,1,0,8.253,8H5.813a.813.813,0,0,0,0,1.626" transform="translate(-0.934 -1.494)" fill="#ededed"/>
      <path id="Path_740" data-name="Path 740" d="M13.813,4.066a.813.813,0,0,0,.813-.813V.813A.813.813,0,1,0,13,.813v2.44a.813.813,0,0,0,.813.813" transform="translate(-2.428 0)" fill="#ededed"/>
      <path id="Path_741" data-name="Path 741" d="M39.349,5.694a.811.811,0,0,0,.575-.238l1.725-1.725a.813.813,0,0,0-1.15-1.15L38.774,4.306a.813.813,0,0,0,.575,1.388" transform="translate(-7.199 -0.438)" fill="#ededed"/>
      <path id="Path_742" data-name="Path 742" d="M40,8.813a.813.813,0,0,0,.813.813h2.44a.813.813,0,0,0,0-1.626h-2.44A.813.813,0,0,0,40,8.813" transform="translate(-7.472 -1.494)" fill="#ededed"/>
      <path id="Path_743" data-name="Path 743" d="M35.813,4.066a.813.813,0,0,0,.813-.813V.813A.813.813,0,0,0,35,.813v2.44a.813.813,0,0,0,.813.813" transform="translate(-6.538 0)" fill="#ededed"/>
    </g>
  </g>
</svg>
