<svg xmlns="http://www.w3.org/2000/svg" xmlns:xlink="http://www.w3.org/1999/xlink" width="33" height="32" viewBox="0 0 33 32">
  <defs>
    <clipPath id="clip-path">
      <rect id="Rectangle_1072" data-name="Rectangle 1072" width="33" height="32" transform="translate(0.323 0.413)" fill="#ededed"/>
    </clipPath>
  </defs>
  <g id="Group_5125" data-name="Group 5125" transform="translate(-24.846 0.064)">
    <g id="Group_2059" data-name="Group 2059" transform="translate(24.523 -0.477)" clip-path="url(#clip-path)">
      <path id="Path_744" data-name="Path 744" d="M31.8,0H.826A.819.819,0,0,0,0,.812V31.268a.819.819,0,0,0,.826.812H31.8a.819.819,0,0,0,.826-.812V.812A.819.819,0,0,0,31.8,0m-.826,15.282h-7.5l.129-.069a8.13,8.13,0,0,0,3.628-3.674,4.025,4.025,0,0,0-.854-4.606,4.715,4.715,0,0,0-5.264-1.257A7.7,7.7,0,0,0,17.36,9.418c-.076.147-.149.3-.22.45V1.624H30.976Zm-13.438-.155c.267-4.407,2.3-7.189,4.2-7.946a3,3,0,0,1,1.114-.224A3.293,3.293,0,0,1,25.2,8.064a2.4,2.4,0,0,1,.517,2.842c-.891,2.073-4.192,4.217-8.174,4.221m-2.05-13.5V9.868c-.071-.152-.143-.3-.22-.45a7.7,7.7,0,0,0-3.757-3.742A4.715,4.715,0,0,0,6.248,6.933a4.025,4.025,0,0,0-.854,4.606,8.131,8.131,0,0,0,3.628,3.674l.129.069h-7.5V1.624Zm-.4,13.5c-3.983,0-7.283-2.149-8.174-4.221a2.4,2.4,0,0,1,.517-2.842A3.292,3.292,0,0,1,9.776,6.957a3,3,0,0,1,1.114.224c1.9.757,3.933,3.539,4.2,7.946M1.652,16.906H15.088A7.146,7.146,0,0,1,11.6,22.69,10.225,10.225,0,0,1,7.938,24.06a.811.811,0,0,0,.1,1.618.845.845,0,0,0,.1-.006A11.755,11.755,0,0,0,12.432,24.1a9.084,9.084,0,0,0,3.056-3.033v9.392H1.652ZM17.14,30.456V21.064A9.084,9.084,0,0,0,20.2,24.1a11.754,11.754,0,0,0,4.288,1.575.845.845,0,0,0,.1.006.811.811,0,0,0,.1-1.618,10.1,10.1,0,0,1-3.616-1.34,7.148,7.148,0,0,1-3.532-5.813H30.976v13.55Z" transform="translate(0.379 0.373)" fill="#ededed"/>
    </g>
  </g>
</svg>
