<svg xmlns="http://www.w3.org/2000/svg" xmlns:xlink="http://www.w3.org/1999/xlink" width="74" height="74" viewBox="0 0 74 74">
  <defs>
    <filter id="Ellipse_109" x="0" y="0" width="74" height="74" filterUnits="userSpaceOnUse">
      <feOffset input="SourceAlpha"/>
      <feGaussianBlur stdDeviation="3" result="blur"/>
      <feFlood/>
      <feComposite operator="in" in2="blur"/>
      <feComposite in="SourceGraphic"/>
    </filter>
  </defs>
  <g id="Group_5220" data-name="Group 5220" transform="translate(11697 17737)">
    <g transform="matrix(1, 0, 0, 1, -11697, -17737)" filter="url(#Ellipse_109)">
      <g id="Ellipse_109-2" data-name="Ellipse 109" transform="translate(9 9)" fill="#c00d0d" stroke="#ededed" stroke-width="1">
        <circle cx="28" cy="28" r="28" stroke="none"/>
        <circle cx="28" cy="28" r="27.5" fill="none"/>
      </g>
    </g>
    <path id="qr-code_7_" data-name="qr-code (7)" d="M9.438,14.831H5.393A5.4,5.4,0,0,1,0,9.438V5.393A5.4,5.4,0,0,1,5.393,0H9.438a5.4,5.4,0,0,1,5.393,5.393V9.438A5.4,5.4,0,0,1,9.438,14.831ZM5.393,4.045A1.351,1.351,0,0,0,4.045,5.393V9.438a1.351,1.351,0,0,0,1.348,1.348H9.438a1.351,1.351,0,0,0,1.348-1.348V5.393A1.351,1.351,0,0,0,9.438,4.045ZM26.966,14.831H22.921a5.4,5.4,0,0,1-5.393-5.393V5.393A5.4,5.4,0,0,1,22.921,0h4.045a5.4,5.4,0,0,1,5.393,5.393V9.438A5.4,5.4,0,0,1,26.966,14.831ZM22.921,4.045a1.35,1.35,0,0,0-1.348,1.348V9.438a1.35,1.35,0,0,0,1.348,1.348h4.045a1.35,1.35,0,0,0,1.348-1.348V5.393a1.35,1.35,0,0,0-1.348-1.348ZM9.438,32.359H5.393A5.4,5.4,0,0,1,0,26.966V22.921a5.4,5.4,0,0,1,5.393-5.393H9.438a5.4,5.4,0,0,1,5.393,5.393v4.045A5.4,5.4,0,0,1,9.438,32.359ZM5.393,21.573a1.351,1.351,0,0,0-1.348,1.348v4.045a1.351,1.351,0,0,0,1.348,1.348H9.438a1.351,1.351,0,0,0,1.348-1.348V22.921a1.351,1.351,0,0,0-1.348-1.348ZM22.921,20.9V19.55A2.023,2.023,0,0,0,20.9,17.528H19.55a2.023,2.023,0,0,0-2.022,2.022V20.9a2.023,2.023,0,0,0,2.022,2.022H20.9A2.023,2.023,0,0,0,22.921,20.9Zm4.045,4.045a2.022,2.022,0,1,0-2.022,2.022A2.023,2.023,0,0,0,26.966,24.944Zm-4.045,5.393V28.989A2.023,2.023,0,0,0,20.9,26.966H19.55a2.023,2.023,0,0,0-2.022,2.022v1.348a2.023,2.023,0,0,0,2.022,2.022H20.9A2.023,2.023,0,0,0,22.921,30.337ZM32.359,20.9V19.55a2.023,2.023,0,0,0-2.022-2.022H28.989a2.023,2.023,0,0,0-2.022,2.022V20.9a2.023,2.023,0,0,0,2.022,2.022h1.348A2.023,2.023,0,0,0,32.359,20.9Z" transform="translate(-11676.18 -17716.18)" fill="#ededed"/>
  </g>
</svg>
