<svg xmlns="http://www.w3.org/2000/svg" width="38" height="38" viewBox="0 0 38 38">
  <g id="user" transform="translate(0)">
    <g id="Group_1888" data-name="Group 1888" transform="translate(24.394 36.455)">
      <path id="Path_607" data-name="Path 607" d="M299.167,451.92c-.2.066-.393.13-.591.189C298.775,452.05,298.971,451.986,299.167,451.92Z" transform="translate(-298.576 -451.56)" fill="#f9ede0"/>
      <path id="Path_608" data-name="Path 608" d="M310.758,447.472c-.211.084-.423.167-.638.244C310.335,447.639,310.547,447.556,310.758,447.472Z" transform="translate(-309.185 -447.472)" fill="#f9ede0"/>
    </g>
    <circle id="Ellipse_71" data-name="Ellipse 71" cx="19" cy="19" r="19" transform="translate(0 0)" fill="#ededed"/>
    <g id="Group_1889" data-name="Group 1889" transform="translate(10.871 35.949)">
      <path id="Path_609" data-name="Path 609" d="M287.316,455.584q-.288.08-.58.151Q287.029,455.664,287.316,455.584Z" transform="translate(-274.173 -454.421)" fill="#f9ede0"/>
      <path id="Path_610" data-name="Path 610" d="M207.428,462.666c-.229-.016-.458-.034-.684-.058C206.971,462.633,207.2,462.65,207.428,462.666Z" transform="translate(-200.661 -460.876)" fill="#f9ede0"/>
      <path id="Path_611" data-name="Path 611" d="M170.676,455.727q-.292-.071-.58-.151Q170.385,455.657,170.676,455.727Z" transform="translate(-166.982 -454.413)" fill="#f9ede0"/>
      <path id="Path_612" data-name="Path 612" d="M194.982,461.008c-.205-.027-.41-.054-.614-.088C194.571,460.953,194.776,460.98,194.982,461.008Z" transform="translate(-189.288 -459.324)" fill="#f9ede0"/>
      <path id="Path_613" data-name="Path 613" d="M220.31,463.669c-.346,0-.689-.011-1.03-.029C219.622,463.658,219.964,463.669,220.31,463.669Z" transform="translate(-212.182 -461.824)" fill="#f9ede0"/>
      <path id="Path_614" data-name="Path 614" d="M182.748,458.694c-.2-.036-.393-.075-.588-.118C182.354,458.619,182.551,458.658,182.748,458.694Z" transform="translate(-178.069 -457.17)" fill="#f9ede0"/>
      <path id="Path_615" data-name="Path 615" d="M132.786,441.739q-.438-.184-.866-.387Q132.348,441.556,132.786,441.739Z" transform="translate(-131.899 -441.342)" fill="#f9ede0"/>
      <path id="Path_616" data-name="Path 616" d="M146.638,447.716c-.215-.077-.426-.159-.638-.244C146.211,447.556,146.423,447.639,146.638,447.716Z" transform="translate(-144.838 -446.966)" fill="#f9ede0"/>
      <path id="Path_617" data-name="Path 617" d="M233.03,463.64c-.342.018-.684.029-1.03.029C232.346,463.669,232.689,463.658,233.03,463.64Z" transform="translate(-223.871 -461.824)" fill="#f9ede0"/>
      <path id="Path_618" data-name="Path 618" d="M249.492,462.608c-.227.025-.456.042-.684.058C249.037,462.65,249.266,462.633,249.492,462.608Z" transform="translate(-239.318 -460.876)" fill="#f9ede0"/>
      <path id="Path_619" data-name="Path 619" d="M275.18,458.576c-.2.043-.391.082-.588.118C274.788,458.658,274.985,458.619,275.18,458.576Z" transform="translate(-263.013 -457.17)" fill="#f9ede0"/>
      <path id="Path_620" data-name="Path 620" d="M262.678,460.912c-.2.033-.408.061-.614.087C262.269,460.973,262.474,460.946,262.678,460.912Z" transform="translate(-251.5 -459.317)" fill="#f9ede0"/>
      <path id="Path_621" data-name="Path 621" d="M322.254,441.368q-.425.2-.862.386C321.683,441.632,321.971,441.5,322.254,441.368Z" transform="translate(-306.021 -441.356)" fill="#f9ede0"/>
      <path id="Path_622" data-name="Path 622" d="M158.719,452.109c-.2-.06-.4-.124-.591-.189C158.324,451.986,158.52,452.05,158.719,452.109Z" transform="translate(-155.983 -451.054)" fill="#f9ede0"/>
      <path id="Path_623" data-name="Path 623" d="M318.275,446.128c-.091.038-.183.072-.275.108C318.091,446.2,318.183,446.166,318.275,446.128Z" transform="translate(-302.904 -445.731)" fill="#f9ede0"/>
      <path id="Path_624" data-name="Path 624" d="M332.058,441.224l-.026.012Z" transform="translate(-315.799 -441.224)" fill="#f9ede0"/>
      <path id="Path_625" data-name="Path 625" d="M177.653,457.539q-.2-.044-.4-.091Q177.453,457.5,177.653,457.539Z" transform="translate(-173.562 -456.134)" fill="#f9ede0"/>
      <path id="Path_626" data-name="Path 626" d="M189.809,460.1c-.134-.022-.268-.047-.4-.071C189.542,460.057,189.675,460.082,189.809,460.1Z" transform="translate(-184.73 -458.508)" fill="#f9ede0"/>
      <path id="Path_627" data-name="Path 627" d="M215.523,463.353c-.111-.006-.221-.018-.331-.025C215.3,463.336,215.412,463.347,215.523,463.353Z" transform="translate(-208.425 -461.537)" fill="#f9ede0"/>
      <path id="Path_628" data-name="Path 628" d="M202.333,462.049c-.13-.014-.259-.032-.389-.049C202.074,462.017,202.2,462.035,202.333,462.049Z" transform="translate(-196.25 -460.317)" fill="#f9ede0"/>
      <path id="Path_629" data-name="Path 629" d="M131.678,441.242l-.022-.01Z" transform="translate(-131.656 -441.231)" fill="#f9ede0"/>
      <path id="Path_630" data-name="Path 630" d="M245.051,463.328c-.111.008-.22.02-.331.025C244.831,463.347,244.94,463.336,245.051,463.328Z" transform="translate(-235.561 -461.537)" fill="#f9ede0"/>
      <path id="Path_631" data-name="Path 631" d="M294.275,454.256c-.126.038-.252.073-.379.108C294.023,454.329,294.149,454.294,294.275,454.256Z" transform="translate(-280.753 -453.2)" fill="#f9ede0"/>
      <path id="Path_632" data-name="Path 632" d="M306.224,450.48c-.114.041-.229.078-.344.117C305.995,450.558,306.11,450.521,306.224,450.48Z" transform="translate(-291.766 -449.73)" fill="#f9ede0"/>
      <path id="Path_633" data-name="Path 633" d="M142.891,446.244c-.091-.036-.184-.071-.275-.108C142.707,446.174,142.8,446.207,142.891,446.244Z" transform="translate(-141.728 -445.738)" fill="#f9ede0"/>
      <path id="Path_634" data-name="Path 634" d="M154.224,450.6c-.115-.039-.231-.076-.344-.117C153.993,450.521,154.109,450.558,154.224,450.6Z" transform="translate(-152.08 -449.73)" fill="#f9ede0"/>
      <path id="Path_635" data-name="Path 635" d="M257.645,462c-.13.017-.259.036-.389.049C257.386,462.035,257.515,462.017,257.645,462Z" transform="translate(-247.081 -460.317)" fill="#f9ede0"/>
      <path id="Path_636" data-name="Path 636" d="M282.245,457.44q-.2.048-.4.091Q282.047,457.489,282.245,457.44Z" transform="translate(-269.681 -456.126)" fill="#f9ede0"/>
      <path id="Path_637" data-name="Path 637" d="M270.033,460.032c-.134.025-.266.05-.4.071C269.767,460.082,269.9,460.057,270.033,460.032Z" transform="translate(-258.455 -458.508)" fill="#f9ede0"/>
      <path id="Path_638" data-name="Path 638" d="M165.8,454.364c-.126-.035-.253-.07-.379-.108C165.55,454.294,165.676,454.329,165.8,454.364Z" transform="translate(-162.688 -453.2)" fill="#f9ede0"/>
    </g>
    <path id="Path_639" data-name="Path 639" d="M72.119,86.254a7.777,7.777,0,1,0-8.6,0h0a14.923,14.923,0,0,0-10.172,10.7h0c.2.247.417.488.634.725.052.058.108.113.161.169.167.178.336.353.51.524.072.071.145.139.218.208.161.153.323.3.489.451.082.073.166.145.249.216q.244.209.5.41c.088.071.177.14.266.209q.255.2.517.382c.09.064.179.13.27.192.184.127.371.249.56.369.085.054.168.11.253.163.218.134.439.262.663.388.059.033.117.069.176.1q.434.237.881.453l.022.01q.427.2.866.387c.091.038.183.072.275.108.211.084.423.167.638.244.114.041.229.078.344.117.2.066.393.13.591.189.126.038.252.073.379.108q.288.08.58.151.2.048.4.091c.2.043.391.082.588.118.134.025.266.05.4.071.2.033.408.061.614.088.13.017.259.036.389.049.227.025.456.042.684.058.111.008.22.019.331.025.342.019.684.03,1.03.03s.689-.011,1.03-.029c.111-.006.221-.018.331-.025.229-.016.458-.034.684-.058.13-.014.259-.032.389-.049.205-.027.41-.054.614-.087.134-.022.268-.047.4-.071.2-.036.393-.075.588-.118q.2-.044.4-.091.292-.071.58-.151c.126-.035.253-.07.379-.108.2-.06.4-.124.591-.189.115-.039.231-.076.344-.117.215-.077.426-.159.638-.244.091-.036.184-.071.275-.108.291-.122.579-.25.862-.386l.026-.012q.447-.215.881-.453c.06-.032.117-.068.176-.1.224-.126.445-.254.663-.388.086-.053.169-.108.253-.163.189-.121.376-.243.56-.369.091-.063.18-.128.27-.192q.261-.188.517-.382c.089-.069.178-.139.266-.209q.251-.2.5-.41c.084-.071.167-.143.249-.216.166-.147.329-.3.489-.451.073-.069.146-.138.218-.208q.261-.257.51-.524c.053-.057.108-.112.161-.169.217-.237.43-.478.634-.725h0A14.921,14.921,0,0,0,72.119,86.254Z" transform="translate(-48.817 -65.962)" fill="#3c3c3b" opacity="0.5"/>
  </g>
</svg>
